<?xml version="1.0" encoding="utf-8"?>
<!-- Generator: Adobe Illustrator 16.0.0, SVG Export Plug-In . SVG Version: 6.00 Build 0)  -->
<!DOCTYPE svg PUBLIC "-//W3C//DTD SVG 1.1//EN" "http://www.w3.org/Graphics/SVG/1.1/DTD/svg11.dtd">
<svg version="1.1" id="Layer_1" xmlns="http://www.w3.org/2000/svg" xmlns:xlink="http://www.w3.org/1999/xlink" x="0px" y="0px"
	 width="100px" height="26px" viewBox="12 0 100 26" enable-background="new 12 0 100 26" xml:space="preserve">
<g>
	<path d="M49.392,6.25h-5.533c-0.379,0-0.701,0.275-0.76,0.649L40.86,21.092c-0.045,0.28,0.172,0.533,0.456,0.533h2.642
		c0.379,0,0.7-0.276,0.76-0.649l0.604-3.828c0.058-0.375,0.381-0.65,0.759-0.65h1.752c3.645,0,5.749-1.767,6.298-5.263
		c0.248-1.529,0.011-2.73-0.706-3.572C52.639,6.739,51.244,6.25,49.392,6.25z M50.03,11.432c-0.303,1.986-1.82,1.986-3.287,1.986
		h-0.835l0.586-3.708c0.035-0.224,0.229-0.39,0.456-0.39h0.382c1,0,1.942,0,2.429,0.57C50.052,10.23,50.141,10.735,50.03,11.432z"/>
	<path d="M65.933,11.368h-2.649c-0.227,0-0.421,0.165-0.456,0.39l-0.116,0.74l-0.187-0.269c-0.573-0.832-1.853-1.111-3.129-1.111
		c-2.929,0-5.43,2.218-5.917,5.332c-0.253,1.554,0.107,3.038,0.987,4.073c0.808,0.952,1.963,1.347,3.338,1.347
		c2.359,0,3.668-1.518,3.668-1.518l-0.118,0.737c-0.044,0.282,0.172,0.533,0.455,0.533h2.386c0.38,0,0.701-0.274,0.762-0.649
		l1.432-9.073C66.433,11.622,66.216,11.368,65.933,11.368z M62.239,16.529c-0.255,1.515-1.457,2.531-2.989,2.531
		c-0.77,0-1.385-0.245-1.78-0.714c-0.391-0.465-0.541-1.125-0.416-1.863c0.238-1.504,1.46-2.553,2.97-2.553
		c0.751,0,1.364,0.25,1.767,0.722C62.195,15.128,62.355,15.795,62.239,16.529z"/>
	<path d="M80.046,11.368h-2.662c-0.255,0-0.494,0.126-0.638,0.338l-3.673,5.413l-1.557-5.202c-0.097-0.325-0.397-0.549-0.737-0.549
		h-2.616c-0.319,0-0.539,0.311-0.438,0.611l2.934,8.611l-2.757,3.893c-0.219,0.306,0.001,0.729,0.375,0.729h2.66
		c0.251,0,0.489-0.123,0.632-0.331l8.857-12.787C80.638,11.787,80.42,11.368,80.046,11.368z"/>
	<path fill="#595959" d="M88.863,6.25h-5.534c-0.378,0-0.701,0.275-0.761,0.649l-2.237,14.193c-0.045,0.28,0.172,0.533,0.455,0.533
		h2.84c0.264,0,0.49-0.194,0.531-0.455l0.635-4.022c0.059-0.375,0.381-0.65,0.759-0.65h1.751c3.646,0,5.75-1.767,6.299-5.263
		c0.248-1.529,0.01-2.73-0.705-3.572C92.109,6.739,90.715,6.25,88.863,6.25z M89.502,11.432c-0.302,1.986-1.819,1.986-3.287,1.986
		h-0.834l0.587-3.708c0.033-0.224,0.227-0.39,0.453-0.39h0.384c0.998,0,1.941,0,2.43,0.57C89.523,10.23,89.612,10.735,89.502,11.432
		z"/>
	<path fill="#595959" d="M105.404,11.368h-2.648c-0.228,0-0.421,0.165-0.455,0.39l-0.117,0.74l-0.187-0.269
		c-0.573-0.832-1.852-1.111-3.129-1.111c-2.929,0-5.428,2.218-5.916,5.332c-0.252,1.554,0.106,3.038,0.987,4.073
		c0.809,0.952,1.963,1.347,3.338,1.347c2.358,0,3.667-1.518,3.667-1.518l-0.118,0.737c-0.044,0.282,0.173,0.533,0.457,0.533h2.386
		c0.378,0,0.699-0.274,0.76-0.649l1.432-9.073C105.904,11.622,105.688,11.368,105.404,11.368z M101.709,16.529
		c-0.253,1.515-1.456,2.531-2.988,2.531c-0.769,0-1.386-0.245-1.78-0.714c-0.392-0.465-0.538-1.125-0.416-1.863
		c0.24-1.504,1.46-2.553,2.97-2.553c0.752,0,1.364,0.25,1.767,0.722C101.667,15.128,101.827,15.795,101.709,16.529z"/>
	<path fill="#595959" d="M108.528,6.639l-2.271,14.453c-0.044,0.28,0.172,0.533,0.454,0.533h2.283c0.38,0,0.702-0.276,0.761-0.649
		l2.239-14.193c0.045-0.28-0.172-0.534-0.455-0.534h-2.557C108.757,6.25,108.563,6.415,108.528,6.639z"/>
	<path d="M17.88,24.382l0.422-2.687l-0.942-0.023h-4.501l3.129-19.837c0.009-0.06,0.041-0.116,0.087-0.156
		c0.046-0.04,0.105-0.062,0.167-0.062h7.59c2.519,0,4.258,0.525,5.166,1.56c0.426,0.485,0.697,0.993,0.828,1.551
		c0.138,0.586,0.141,1.286,0.006,2.139L29.821,6.93v0.547l0.425,0.241c0.358,0.19,0.644,0.408,0.862,0.658
		c0.364,0.415,0.6,0.942,0.699,1.567c0.103,0.644,0.068,1.409-0.1,2.275c-0.194,0.998-0.508,1.866-0.933,2.576
		c-0.39,0.655-0.887,1.198-1.477,1.62c-0.563,0.402-1.232,0.705-1.989,0.898c-0.733,0.19-1.569,0.286-2.486,0.286h-0.59
		c-0.422,0-0.833,0.152-1.155,0.426c-0.323,0.278-0.537,0.659-0.602,1.074l-0.044,0.243l-0.748,4.736l-0.034,0.175
		c-0.009,0.055-0.025,0.082-0.047,0.102c-0.021,0.018-0.05,0.027-0.078,0.027H17.88z"/>
	<path fill="#595959" d="M30.649,6.993L30.649,6.993L30.649,6.993c-0.023,0.145-0.049,0.292-0.078,0.445
		c-1.001,5.139-4.425,6.915-8.799,6.915h-2.227c-0.535,0-0.986,0.388-1.069,0.917l0,0l0,0l-1.14,7.232l-0.323,2.052
		c-0.054,0.345,0.213,0.658,0.563,0.658h3.949c0.467,0,0.865-0.341,0.938-0.802l0.039-0.201l0.743-4.718l0.048-0.259
		c0.073-0.464,0.471-0.805,0.939-0.805h0.59c3.827,0,6.822-1.553,7.697-6.052c0.366-1.878,0.177-3.446-0.792-4.549
		C31.437,7.494,31.074,7.218,30.649,6.993z"/>
	<path d="M29.602,6.575C29.45,6.531,29.292,6.49,29.13,6.454c-0.163-0.036-0.329-0.067-0.501-0.095
		c-0.6-0.097-1.258-0.143-1.963-0.143h-5.949c-0.146,0-0.286,0.033-0.41,0.093C20.033,6.44,19.828,6.7,19.779,7.018l-1.266,8.017
		l-0.036,0.234c0.083-0.529,0.534-0.917,1.069-0.917h2.227c4.374,0,7.797-1.776,8.799-6.915c0.03-0.152,0.055-0.3,0.078-0.445
		c-0.253-0.134-0.528-0.25-0.824-0.347C29.753,6.621,29.678,6.598,29.602,6.575z"/>
	<path d="M19.779,7.018C19.828,6.7,20.033,6.44,20.307,6.31c0.125-0.06,0.264-0.093,0.41-0.093h5.949
		c0.705,0,1.363,0.046,1.963,0.144c0.172,0.027,0.338,0.059,0.501,0.094c0.162,0.036,0.32,0.077,0.472,0.121
		c0.076,0.023,0.151,0.046,0.225,0.07c0.295,0.098,0.57,0.213,0.823,0.347c0.298-1.899-0.002-3.192-1.03-4.363
		c-1.132-1.289-3.175-1.84-5.789-1.84h-7.589c-0.535,0-0.99,0.388-1.073,0.917l-3.162,20.042c-0.062,0.397,0.244,0.753,0.644,0.753
		h4.686l1.176-7.466L19.779,7.018z"/>
</g>
</svg>
